<svg width="73" height="233" viewBox="0 0 73 233" fill="none" xmlns="http://www.w3.org/2000/svg">
<path d="M31.7642 0.724144C32.5927 0.724998 33.2635 1.39726 33.2627 2.22568L33.2487 15.7257C33.2479 16.5541 32.5756 17.225 31.7472 17.2241C30.9188 17.2233 30.2479 16.551 30.2487 15.7226L30.2611 3.72259L18.2611 3.71019C17.4327 3.70933 16.7618 3.03707 16.7627 2.20865C16.7635 1.38022 17.4358 0.70934 18.2642 0.710201L31.7642 0.724144ZM71.9295 229.988C72.6358 230.421 72.8573 231.344 72.4243 232.05C71.9913 232.757 71.0678 232.978 70.3615 232.545L71.9295 229.988ZM32.8223 3.28589C7.63961 28.4166 -1.27291 73.6137 5.57945 118.488C12.4257 163.322 34.9378 207.31 71.9295 229.988L70.3615 232.545C32.3832 209.263 9.54562 164.335 2.61383 118.941C-4.31188 73.5862 4.56919 27.2424 30.7031 1.16239L32.8223 3.28589Z" fill="url(#paint0_linear_1909_6313)"/>
<defs>
<linearGradient id="paint0_linear_1909_6313" x1="83.9278" y1="56.2681" x2="5.85767" y2="194.355" gradientUnits="userSpaceOnUse">
<stop stop-color="#BFF0FF"/>
<stop offset="1" stop-color="#82B4FF"/>
</linearGradient>
</defs>
</svg>
